<?xml version="1.0" standalone="no"?>
<!DOCTYPE svg PUBLIC "-//W3C//DTD SVG 20010904//EN"
 "http://www.w3.org/TR/2001/REC-SVG-20010904/DTD/svg10.dtd">
<svg version="1.0" xmlns="http://www.w3.org/2000/svg"
 width="633.000000pt" height="633.000000pt" viewBox="0 0 633.000000 633.000000"
 preserveAspectRatio="xMidYMid meet">
<metadata>
Created by potrace 1.11, written by Peter Selinger 2001-2013
</metadata>
<g transform="translate(0.000000,633.000000) scale(0.100000,-0.100000)"
fill="#000000" stroke="none">
<path d="M0 3170 l0 -2140 3165 0 3165 0 0 2140 0 2140 -3165 0 -3165 0 0
-2140z m6168 23 l-3 -1928 -3012 -3 -3013 -2 0 1930 0 1930 3015 0 3015 0 -2
-1927z"/>
<path d="M180 3190 l0 -1880 2970 0 2970 0 0 1880 0 1880 -2970 0 -2970 0 0
-1880z m3529 -51 c155 -377 281 -689 281 -693 0 -4 -32 -6 -71 -4 l-72 3 -70
178 -70 177 -286 -2 -286 -3 -70 -177 -70 -178 -72 0 c-71 0 -72 0 -64 23 5
12 129 315 276 672 147 358 271 661 276 674 5 13 11 22 13 20 2 -2 130 -313
285 -690z m-1455 582 c231 -61 408 -238 466 -467 63 -247 -28 -522 -221 -669
-155 -116 -265 -145 -564 -145 l-205 0 0 656 0 657 223 -6 c179 -4 237 -9 301
-26z m2346 -494 c0 -564 -2 -587 -54 -664 -55 -81 -161 -132 -291 -140 -81 -6
-192 14 -222 38 -14 12 -19 154 -5 147 117 -60 240 -69 335 -23 48 23 83 68
96 125 7 28 11 237 11 543 l0 497 65 0 65 0 0 -523z"/>
<path d="M3411 3489 c-5 -13 -57 -145 -116 -292 -59 -148 -105 -270 -102 -273
2 -2 108 -3 234 -2 l230 3 -113 289 c-63 159 -116 291 -119 294 -2 3 -9 -6
-14 -19z"/>
<path d="M1862 3093 l3 -518 156 2 c139 1 164 4 234 28 223 75 355 257 355
492 0 143 -54 267 -159 366 -120 113 -224 147 -449 147 l-142 0 2 -517z"/>
</g>
</svg>
